<?xml version="1.0" encoding="UTF-8"?>
<svg xmlns="http://www.w3.org/2000/svg" xmlns:xlink="http://www.w3.org/1999/xlink" width="150px" height="150px" viewBox="0 0 150 150" version="1.1">
<g id="surface1">
<path style=" stroke:none;fill-rule:nonzero;fill:#7049C3;fill-opacity:1;" d="M 91.640625 26.804688 C 88.328125 27.335938 85.53125 28.742188 83.101562 31.097656 C 76.085938 37.910156 77.078125 49.484375 85.136719 54.945312 C 92.988281 60.292969 103.84375 57.335938 107.871094 48.765625 C 109.847656 44.574219 109.847656 39.800781 107.898438 35.65625 C 107.007812 33.765625 106.203125 32.636719 104.679688 31.128906 C 102.65625 29.121094 100.386719 27.847656 97.558594 27.113281 C 96.136719 26.75 93.0625 26.585938 91.640625 26.804688 Z M 91.640625 26.804688 "/>
<path style=" stroke:none;fill-rule:nonzero;fill:#7049C3;fill-opacity:1;" d="M 2.855469 37.648438 C 2.375 37.792969 1.597656 38.011719 1.140625 38.144531 C 0.671875 38.277344 0.292969 38.46875 0.292969 38.554688 C 0.292969 38.65625 3.53125 50.421875 7.484375 64.703125 L 14.664062 90.660156 L 13.039062 106.304688 C 12.144531 114.902344 11.441406 122.109375 11.453125 122.3125 C 11.5 122.664062 11.542969 122.679688 13.445312 122.886719 C 14.515625 122.988281 15.425781 123.046875 15.4375 123.03125 C 15.46875 123.003906 16.171875 116.308594 17.007812 108.179688 L 18.53125 93.382812 L 43.433594 93.382812 L 44.957031 108.179688 C 45.789062 116.308594 46.492188 123.003906 46.523438 123.03125 C 46.554688 123.0625 47.445312 122.988281 48.515625 122.886719 L 50.464844 122.679688 L 50.492188 122.167969 C 50.523438 121.890625 49.820312 114.84375 48.953125 106.523438 L 47.375 91.40625 L 49.511719 91.40625 L 49.511719 87.15625 L 33.734375 87.128906 L 17.960938 87.085938 L 12.671875 67.96875 C 9.757812 57.453125 6.664062 46.257812 5.785156 43.09375 C 4.539062 38.570312 4.144531 37.351562 3.96875 37.367188 C 3.835938 37.367188 3.339844 37.5 2.855469 37.648438 Z M 2.855469 37.648438 "/>
<path style=" stroke:none;fill-rule:nonzero;fill:#7049C3;fill-opacity:1;" d="M 66.648438 38.820312 C 64.90625 38.949219 64.027344 39.140625 61.449219 39.875 C 48.925781 43.445312 40.941406 47.753906 30.671875 56.425781 C 26.996094 59.53125 25.121094 62.183594 24.300781 65.464844 C 23.847656 67.234375 23.949219 70.003906 24.535156 71.777344 C 25.09375 73.519531 26.03125 75.320312 27.640625 77.78125 C 29.28125 80.273438 30.820312 81.898438 32.152344 82.558594 L 33.03125 82.984375 L 47.429688 83.027344 L 61.816406 83.070312 L 61.816406 68.378906 C 61.816406 59.546875 61.875 53.277344 61.960938 52.660156 C 62.375 49.804688 64.671875 47.34375 67.5 46.742188 C 71.175781 45.96875 74.824219 48.238281 75.820312 51.929688 C 75.96875 52.484375 76.023438 53.980469 76.023438 57.964844 L 76.023438 63.28125 L 136.085938 63.28125 L 136.085938 123.484375 L 140.917969 123.484375 L 140.917969 63.28125 L 149.851562 63.28125 L 149.824219 60.527344 L 149.78125 57.789062 L 125.933594 57.742188 L 102.070312 57.714844 L 100.882812 58.242188 C 96.503906 60.160156 91.507812 60.203125 87.15625 58.328125 L 85.914062 57.804688 L 82.71875 57.757812 L 79.539062 57.699219 L 80.199219 56.878906 C 80.566406 56.425781 81.035156 55.78125 81.242188 55.429688 L 81.621094 54.785156 L 80.933594 54.023438 C 77.960938 50.710938 76.320312 46.480469 76.320312 42.101562 L 76.320312 40.765625 L 75.148438 40.226562 C 73.695312 39.566406 71.660156 39.007812 70.269531 38.890625 C 69.683594 38.847656 68.949219 38.789062 68.628906 38.757812 C 68.304688 38.730469 67.414062 38.757812 66.648438 38.820312 Z M 66.648438 38.820312 "/>
<path style=" stroke:none;fill-rule:nonzero;fill:#7049C3;fill-opacity:1;" d="M 67.53125 48.324219 C 66.125 48.78125 64.65625 49.996094 64.042969 51.210938 C 63.882812 51.53125 63.675781 52.179688 63.574219 52.660156 C 63.457031 53.304688 63.429688 60.746094 63.457031 80.492188 L 63.5 107.445312 L 63.851562 108.324219 C 64.351562 109.554688 65.667969 110.875 66.871094 111.3125 C 69.875 112.457031 73.023438 111.078125 74.105469 108.164062 L 74.414062 107.359375 L 74.382812 79.71875 L 74.339844 52.074219 L 73.84375 51.152344 C 72.832031 49.292969 71.25 48.3125 69.140625 48.238281 C 68.453125 48.222656 67.734375 48.25 67.53125 48.324219 Z M 67.53125 48.324219 "/>
<path style=" stroke:none;fill-rule:nonzero;fill:#7049C3;fill-opacity:1;" d="M 76.023438 86.703125 L 76.023438 106.789062 L 78.3125 112.5 C 79.601562 115.722656 80.828125 118.578125 81.136719 119.0625 C 82.25 120.777344 84.300781 122.195312 86.308594 122.679688 C 88.257812 123.132812 90.644531 122.8125 92.476562 121.84375 C 94.367188 120.851562 96.050781 118.636719 96.621094 116.441406 C 96.945312 115.226562 96.929688 113.246094 96.605469 112.117188 C 96.285156 111.019531 80.375 71.21875 79.863281 70.238281 C 79.394531 69.359375 77.519531 67.441406 76.65625 66.972656 L 76.023438 66.636719 Z M 76.023438 86.703125 "/>
<path style=" stroke:none;fill-rule:nonzero;fill:#7049C3;fill-opacity:1;" d="M 66.210938 118.125 L 66.210938 123.484375 L 71.046875 123.484375 L 71.046875 113.054688 L 70.679688 113.144531 C 69.449219 113.453125 67.542969 113.335938 66.476562 112.867188 C 66.226562 112.765625 66.210938 113.070312 66.210938 118.125 Z M 66.210938 118.125 "/>
</g>
</svg>
