<?xml version="1.0" encoding="UTF-8"?>
<svg xmlns="http://www.w3.org/2000/svg" xmlns:xlink="http://www.w3.org/1999/xlink" width="24px" height="24px" viewBox="0 0 24 24" version="1.1">
<g id="surface1">
<path style=" stroke:none;fill-rule:evenodd;fill:rgb(0%,0%,0%);fill-opacity:1;" d="M 12 1.5 C 6.203125 1.5 1.5 6.320312 1.5 12.265625 C 1.5 17.023438 4.507812 21.054688 8.679688 22.480469 C 9.207031 22.578125 9.398438 22.246094 9.398438 21.960938 C 9.398438 21.703125 9.390625 21.027344 9.382812 20.128906 C 6.464844 20.78125 5.84375 18.683594 5.84375 18.683594 C 5.367188 17.441406 4.679688 17.109375 4.679688 17.109375 C 3.726562 16.4375 4.75 16.453125 4.75 16.453125 C 5.804688 16.527344 6.355469 17.5625 6.355469 17.5625 C 7.292969 19.210938 8.8125 18.734375 9.414062 18.460938 C 9.507812 17.765625 9.777344 17.289062 10.078125 17.019531 C 7.75 16.75 5.296875 15.824219 5.296875 11.699219 C 5.296875 10.523438 5.703125 9.5625 6.375 8.8125 C 6.265625 8.539062 5.90625 7.445312 6.476562 5.960938 C 6.476562 5.960938 7.359375 5.671875 9.367188 7.0625 C 10.203125 6.824219 11.101562 6.707031 11.996094 6.703125 C 12.886719 6.707031 13.785156 6.824219 14.625 7.0625 C 16.632812 5.671875 17.507812 5.960938 17.507812 5.960938 C 18.078125 7.445312 17.71875 8.539062 17.609375 8.8125 C 18.28125 9.566406 18.6875 10.527344 18.6875 11.699219 C 18.6875 15.835938 16.234375 16.742188 13.894531 17.011719 C 14.269531 17.34375 14.605469 18 14.605469 19.003906 C 14.605469 20.441406 14.59375 21.605469 14.59375 21.957031 C 14.59375 22.242188 14.78125 22.578125 15.3125 22.472656 C 19.496094 21.050781 22.5 17.019531 22.5 12.265625 C 22.5 6.320312 17.796875 1.5 12 1.5 Z M 12 1.5 "/>
</g>
</svg>
